<?xml version="1.0" encoding="UTF-8"?>
<svg width="22px" height="16px" viewBox="0 0 22 16" version="1.1" xmlns="http://www.w3.org/2000/svg" xmlns:xlink="http://www.w3.org/1999/xlink">
    <title>mail</title>
    <g id="Page-1" stroke="none" stroke-width="1" fill="none" fill-rule="evenodd">
        <g id="Contact-Us" transform="translate(-120.000000, -447.000000)" fill="#000000" fill-rule="nonzero">
            <g id="Contact-us-info" transform="translate(0.000000, 264.000000)">
                <g id="mail" transform="translate(120.000000, 183.000000)">
                    <path d="M20.0664062,0 L1.93359375,0 C0.865261719,0 0,0.900533333 0,2 L0,14 C0,15.106 0.871621094,16 1.93359375,16 L20.0664062,16 C21.1258008,16 22,15.1097778 22,14 L22,2 C22,0.902488889 21.1381758,0 20.0664062,0 Z M19.7956172,1.33333333 C19.4005625,1.73977778 12.6020039,8.7348 12.3672656,8.97631111 C12.0020312,9.35408889 11.5164844,9.56208889 11,9.56208889 C10.4835156,9.56208889 9.99796875,9.35404444 9.63153125,8.97506667 C9.47366406,8.81262222 2.75012891,1.89484444 2.20438281,1.33333333 L19.7956172,1.33333333 Z M1.2890625,13.7286222 L1.2890625,2.27222222 L6.85944531,8.00355556 L1.2890625,13.7286222 Z M2.20519922,14.6666667 L7.77339063,8.94386667 L8.72123828,9.91911111 C9.32993359,10.5487111 10.139207,10.8954222 11,10.8954222 C11.860793,10.8954222 12.6700664,10.5487111 13.2775586,9.92035556 L14.2266094,8.94386667 L19.7948008,14.6666667 L2.20519922,14.6666667 Z M20.7109375,13.7286222 L15.1405547,8.00355556 L20.7109375,2.27222222 L20.7109375,13.7286222 Z" id="Shape"></path>
                </g>
            </g>
        </g>
    </g>
</svg>