<?xml version="1.0" encoding="UTF-8"?>
<svg width="22px" height="22px" viewBox="0 0 22 22" version="1.1" xmlns="http://www.w3.org/2000/svg" xmlns:xlink="http://www.w3.org/1999/xlink">
    <title>telephone</title>
    <g id="Page-1" stroke="none" stroke-width="1" fill="none" fill-rule="evenodd">
        <g id="Contact-Us" transform="translate(-120.000000, -494.000000)" fill="#000000" fill-rule="nonzero">
            <g id="Contact-us-info" transform="translate(0.000000, 264.000000)">
                <g id="telephone" transform="translate(120.000000, 230.000000)">
                    <path d="M4.45820094,14.6241194 C6.63633957,17.2179859 9.25834259,19.2602569 12.2509952,20.705346 C13.3903997,21.2432656 14.9141816,21.8814753 16.6118484,21.9908827 C16.7170946,21.9954414 16.8177649,22 16.9230111,22 C18.0624155,22 18.9775998,21.6079569 19.723475,20.8010775 C19.728051,20.7965189 19.7372028,20.7874016 19.7417787,20.7782843 C20.0071822,20.4591794 20.309193,20.1719851 20.6249316,19.8665562 C20.8399999,19.6614173 21.0596441,19.4471612 21.2701365,19.2283465 C22.2448078,18.2163282 22.2448078,16.9307915 21.2609847,15.9506838 L18.5108559,13.2109407 C18.0441119,12.7277248 17.4858494,12.4724409 16.9001315,12.4724409 C16.3144135,12.4724409 15.7515752,12.7277248 15.2711034,13.2063821 L13.6329235,14.8383755 C13.4819181,14.7517613 13.3263368,14.6742644 13.1799073,14.6013262 C12.9968705,14.5101533 12.8275614,14.4235392 12.6765559,14.3278077 C11.1848055,13.3841691 9.83033278,12.1533361 8.53534699,10.5714878 C7.88099022,9.74637381 7.44170176,9.05346042 7.13511502,8.34687111 C7.56525164,7.95938666 7.96793273,7.55366763 8.35688606,7.15706589 C8.4941637,7.01574803 8.63601727,6.87443017 8.77787083,6.73311231 C9.27207035,6.24077911 9.5374738,5.67094903 9.5374738,5.09200166 C9.5374738,4.51305429 9.27664628,3.9432242 8.77787083,3.45089101 L7.41424623,2.09241608 C7.25408898,1.93286366 7.10308357,1.77786987 6.94750224,1.61831745 C6.64549142,1.30832988 6.32975283,0.989225031 6.01859017,0.702030667 C5.54727026,0.241607957 4.99358376,0 4.40786581,0 C3.82672378,0 3.26846135,0.241607957 2.77883775,0.706589308 L1.06744312,2.41152093 C0.445117793,3.03149606 0.0927718375,3.78367178 0.0195570936,4.65437215 C-0.0673854148,5.74388728 0.133955131,6.90178201 0.655610181,8.30128471 C1.45639644,10.466639 2.66443972,12.4769996 4.45820094,14.6241194 Z M1.13608194,4.75010361 C1.190993,4.14380439 1.42436499,3.63779528 1.86365346,3.20016577 L3.56589625,1.50435143 C3.8312997,1.24906755 4.12415867,1.11686697 4.40786581,1.11686697 C4.68699702,1.11686697 4.97070415,1.24906755 5.23153168,1.51346871 C5.53811842,1.79610443 5.82640147,2.09241608 6.13756413,2.40696229 C6.29314546,2.56651471 6.45330271,2.72606714 6.61345997,2.8901782 L7.97708457,4.24865313 C8.2607917,4.53128885 8.40722119,4.81848322 8.40722119,5.10111894 C8.40722119,5.38375466 8.2607917,5.67094903 7.97708457,5.95358475 C7.83523101,6.09490261 7.69337744,6.24077911 7.55152387,6.38209697 C7.12596317,6.8106092 6.727858,7.21632822 6.28856954,7.60381268 C6.2794177,7.61292996 6.27484178,7.6174886 6.26568993,7.62660588 C5.88588845,8.00497306 5.94537543,8.36510568 6.03689386,8.63862412 C6.04146978,8.65230004 6.0460457,8.66141732 6.05062162,8.67509324 C6.40296758,9.51844177 6.89259118,10.3207625 7.65677007,11.2780771 C9.02954652,12.9647741 10.4755377,14.273104 12.0679584,15.2805636 C12.264723,15.4082056 12.4752154,15.5084956 12.67198,15.6087857 C12.8550169,15.6999586 13.024326,15.7865727 13.1753314,15.8823042 C13.1936351,15.8914215 13.2073628,15.9005387 13.2256665,15.909656 C13.3766719,15.9871529 13.5231014,16.023622 13.6695309,16.023622 C14.0356046,16.023622 14.2735525,15.7911314 14.3513432,15.7136345 L16.0627379,14.0087029 C16.3281413,13.7443017 16.6164244,13.6029838 16.9001315,13.6029838 C17.2479015,13.6029838 17.5316087,13.81724 17.7100696,14.0087029 L20.4693503,16.7530046 C21.0184608,17.3000414 21.0138849,17.8926647 20.4556225,18.4716121 C20.2634338,18.6767509 20.0620932,18.8727725 19.8470249,19.0779113 C19.5267104,19.3878989 19.1926682,19.7070037 18.8906573,20.0671363 C18.3644264,20.6324078 17.7375251,20.896809 16.927587,20.896809 C16.8497963,20.896809 16.7674298,20.8922503 16.6896391,20.8876917 C15.1887368,20.7919602 13.7930808,20.2084542 12.7451948,19.7115624 C9.8989716,18.3394115 7.40051846,16.3928719 5.32762603,13.9220887 C3.62080731,11.875259 2.47225101,9.9697472 1.71264805,7.92747617 C1.24132813,6.67384998 1.06286719,5.66639039 1.13608194,4.75010361 Z" id="Shape"></path>
                </g>
            </g>
        </g>
    </g>
</svg>