<?xml version="1.0" encoding="UTF-8"?>
<svg width="17px" height="22px" viewBox="0 0 17 22" version="1.1" xmlns="http://www.w3.org/2000/svg" xmlns:xlink="http://www.w3.org/1999/xlink">
    <title>pin</title>
    <g id="Page-1" stroke="none" stroke-width="1" fill="none" fill-rule="evenodd">
        <g id="Contact-Us" transform="translate(-122.000000, -547.000000)" fill="#000000" fill-rule="nonzero">
            <g id="Contact-us-info" transform="translate(0.000000, 264.000000)">
                <g id="pin" transform="translate(122.000000, 283.000000)">
                    <path d="M8.5,0 C3.813,0 0,3.64563233 0,8.12690135 C0,9.60217297 0.692,11.1888309 0.721,11.2557584 C0.9445,11.7629726 1.3855,12.550804 1.7035,13.0126032 L7.5315,21.4554976 C7.77,21.801608 8.123,22 8.5,22 C8.877,22 9.23,21.801608 9.4685,21.4559757 L15.297,13.0126032 C15.6155,12.550804 16.056,11.7629726 16.2795,11.2557584 C16.3085,11.189309 17,9.60265102 17,8.12690135 C17,3.64563233 13.187,0 8.5,0 Z M15.3575,10.8847892 C15.158,11.3394176 14.7475,12.0722729 14.462,12.4862668 L8.6335,20.9296393 C8.5185,21.0964798 8.482,21.0964798 8.367,20.9296393 L2.5385,12.4862668 C2.253,12.0722729 1.8425,11.3389396 1.643,10.8843112 C1.6345,10.864711 1,9.40425902 1,8.12690135 C1,4.17292482 4.3645,0.956106041 8.5,0.956106041 C12.6355,0.956106041 16,4.17292482 16,8.12690135 C16,9.40617123 15.364,10.8704476 15.3575,10.8847892 Z" id="Shape"></path>
                    <path d="M8.5,4 C6.0185,4 4,6.019 4,8.5 C4,10.981 6.0185,13 8.5,13 C10.9815,13 13,10.981 13,8.5 C13,6.019 10.9815,4 8.5,4 Z M8.5,12 C6.5705,12 5,10.43 5,8.5 C5,6.57 6.5705,5 8.5,5 C10.4295,5 12,6.57 12,8.5 C12,10.43 10.4295,12 8.5,12 Z" id="Shape"></path>
                </g>
            </g>
        </g>
    </g>
</svg>