<?xml version="1.0" encoding="UTF-8"?>
<svg width="11px" height="9px" viewBox="0 0 11 9" version="1.1" xmlns="http://www.w3.org/2000/svg" xmlns:xlink="http://www.w3.org/1999/xlink">
    <title>heart</title>
    <g id="Page-1" stroke="none" stroke-width="1" fill="none" fill-rule="evenodd">
        <g id="Homepage-" transform="translate(-211.000000, -2918.000000)" fill="#FFDD00" fill-rule="nonzero">
            <g id="Footer" transform="translate(0.000000, 2518.000000)">
                <g id="Group" transform="translate(117.000000, 398.000000)">
                    <g id="heart" transform="translate(94.000000, 2.000000)">
                        <path d="M7.88100355,0.000210395398 C7.88100355,0.000210395398 7.88100355,0.000210395398 7.88100355,0.000210395398 C6.96339298,-0.00463586549 6.09106327,0.393626694 5.49998667,1.08727412 C4.91261463,0.388885786 4.03785964,-0.010509323 3.1189698,0.000210395398 C1.39640447,0.000210395398 0,1.38020952 0,3.08253767 C0,5.99977602 5.15189165,8.84816586 5.36075932,8.95826026 C5.44503132,9.01391325 5.55494203,9.01391325 5.63924068,8.95826026 C5.84810835,8.84816586 11,6.04104825 11,3.08253767 C11,1.38020952 9.60356888,0.000210395398 7.88100355,0.000210395398 Z" id="Path"></path>
                    </g>
                </g>
            </g>
        </g>
    </g>
</svg>