<?xml version="1.0" encoding="UTF-8"?>
<svg width="15px" height="15px" viewBox="0 0 15 15" version="1.1" xmlns="http://www.w3.org/2000/svg" xmlns:xlink="http://www.w3.org/1999/xlink">
    <title>FB</title>
    <g id="Page-1" stroke="none" stroke-width="1" fill="none" fill-rule="evenodd">
        <g id="Homepage-" transform="translate(-891.000000, -2915.000000)" fill="#FFFFFF" fill-rule="nonzero">
            <g id="Footer" transform="translate(0.000000, 2518.000000)">
                <g id="FB" transform="translate(891.000000, 397.000000)">
                    <path d="M15,7.5 C15,3.35742188 11.6425781,0 7.5,0 C3.35742188,0 0,3.35742188 0,7.5 C0,11.6425781 3.35742188,15 7.5,15 C7.54394531,15 7.58789062,15 7.63183594,14.9970703 L7.63183594,9.16113281 L6.02050781,9.16113281 L6.02050781,7.28320312 L7.63183594,7.28320312 L7.63183594,5.90039062 C7.63183594,4.29785156 8.61035156,3.42480469 10.0400391,3.42480469 C10.7255859,3.42480469 11.3144531,3.47460937 11.484375,3.49804687 L11.484375,5.17382812 L10.5,5.17382812 C9.72363281,5.17382812 9.57128906,5.54296875 9.57128906,6.08496094 L9.57128906,7.28027344 L11.4316406,7.28027344 L11.1884766,9.15820312 L9.57128906,9.15820312 L9.57128906,14.7099609 C12.7060547,13.8105469 15,10.9248047 15,7.5 Z" id="Path"></path>
                </g>
            </g>
        </g>
    </g>
</svg>