<?xml version="1.0" encoding="UTF-8"?>
<svg width="16px" height="16px" viewBox="0 0 16 16" version="1.1" xmlns="http://www.w3.org/2000/svg" xmlns:xlink="http://www.w3.org/1999/xlink">
    <title>loupe</title>
    <g id="Page-1" stroke="none" stroke-width="1" fill="none" fill-rule="evenodd">
        <g id="Projects" transform="translate(-531.000000, -336.000000)" fill="#000000" fill-rule="nonzero">
            <g id="All-projects-listing" transform="translate(116.000000, 328.000000)">
                <g id="search" transform="translate(401.000000, 0.000000)">
                    <g id="loupe" transform="translate(14.000000, 8.000000)">
                        <path d="M7,0 C3.14030443,0 0,3.14030443 0,7 C0,10.8599129 3.14030443,14 7,14 C10.8599129,14 14,10.8599129 14,7 C14,3.14030443 10.8599129,0 7,0 Z M7,12.7077224 C3.85280343,12.7077224 1.29230865,10.1472276 1.29230865,7.00003105 C1.29230865,3.85283447 3.85280343,1.29230865 7,1.29230865 C10.1471966,1.29230865 12.7076914,3.85280343 12.7076914,7 C12.7076914,10.1471966 10.1471966,12.7077224 7,12.7077224 Z" id="Shape"></path>
                        <path d="M15.8105598,14.8963323 L12.1036737,11.1894405 C11.8510868,10.9368532 11.4420271,10.9368532 11.1894402,11.1894405 C10.9368533,11.4418103 10.9368533,11.8513056 11.1894402,12.1036754 L14.8963263,15.8105673 C15.0226042,15.9368454 15.1879304,16 15.3534431,16 C15.5187382,16 15.6842508,15.9368454 15.8105598,15.8105673 C16.0631467,15.5581974 16.0631467,15.1487022 15.8105598,14.8963323 Z" id="Path"></path>
                    </g>
                </g>
            </g>
        </g>
    </g>
</svg>